<svg xmlns="http://www.w3.org/2000/svg" xmlns:xlink="http://www.w3.org/1999/xlink" width="500" zoomAndPan="magnify" viewBox="0 0 375 374.999991" height="500" preserveAspectRatio="xMidYMid meet" version="1.0"><defs><g/><clipPath id="e7518fa153"><path d="M 18.847656 85.765625 L 187.597656 85.765625 L 187.597656 274.765625 L 18.847656 274.765625 Z M 18.847656 85.765625 " clip-rule="nonzero"/></clipPath></defs><g clip-path="url(#e7518fa153)"><path fill="#ff05f5" d="M 113.300781 274.832031 C 61.21875 274.832031 18.847656 232.460938 18.847656 180.375 C 18.847656 128.296875 61.21875 85.925781 113.300781 85.925781 C 139.554688 85.925781 164.835938 96.984375 182.660156 116.265625 L 187.492188 121.492188 L 150.917969 155.3125 L 146.082031 150.089844 C 137.53125 140.839844 125.886719 135.746094 113.300781 135.746094 C 88.6875 135.746094 68.664062 155.769531 68.664062 180.375 C 68.664062 193.691406 74.570312 206.21875 84.871094 214.753906 L 75.785156 225.714844 C 62.214844 214.464844 54.433594 197.941406 54.433594 180.375 C 54.433594 147.917969 80.839844 121.511719 113.300781 121.511719 C 127.503906 121.511719 140.789062 126.425781 151.394531 135.480469 L 167.144531 120.921875 C 152.46875 107.652344 133.214844 100.160156 113.300781 100.160156 C 69.070312 100.160156 33.082031 136.144531 33.082031 180.375 C 33.082031 224.609375 69.070312 260.597656 113.300781 260.597656 C 130.1875 260.597656 146.351562 255.40625 160.035156 245.582031 C 163.703125 242.953125 167.175781 239.980469 170.371094 236.75 L 180.496094 246.746094 C 176.742188 250.550781 172.652344 254.050781 168.332031 257.144531 C 152.21875 268.714844 133.1875 274.832031 113.300781 274.832031 " fill-opacity="1" fill-rule="nonzero"/></g><g fill="#faf6f6" fill-opacity="1"><g transform="translate(129.420538, 217.701478)"><g><path d="M 34.859375 -19.671875 L 47.234375 -19.671875 C 46.953125 -15.890625 45.765625 -12.425781 43.671875 -9.28125 C 41.585938 -6.144531 38.890625 -3.65625 35.578125 -1.8125 C 32.273438 0.0195312 28.644531 0.9375 24.6875 0.9375 C 21.625 0.9375 18.75 0.359375 16.0625 -0.796875 C 13.382812 -1.960938 11.023438 -3.578125 8.984375 -5.640625 C 6.953125 -7.703125 5.351562 -10.078125 4.1875 -12.765625 C 3.03125 -15.453125 2.453125 -18.320312 2.453125 -21.375 C 2.453125 -25.5 3.457031 -29.253906 5.46875 -32.640625 C 7.476562 -36.035156 10.164062 -38.738281 13.53125 -40.75 C 16.894531 -42.757812 20.613281 -43.765625 24.6875 -43.765625 C 28.1875 -43.765625 31.460938 -43 34.515625 -41.46875 C 37.566406 -39.945312 40.140625 -37.910156 42.234375 -35.359375 L 32.65625 -27.90625 C 31.582031 -29.320312 30.351562 -30.3125 28.96875 -30.875 C 27.582031 -31.4375 26.15625 -31.71875 24.6875 -31.71875 C 21.914062 -31.71875 19.550781 -30.742188 17.59375 -28.796875 C 15.644531 -26.847656 14.671875 -24.375 14.671875 -21.375 C 14.671875 -18.320312 15.644531 -15.832031 17.59375 -13.90625 C 19.550781 -11.988281 21.914062 -11.03125 24.6875 -11.03125 C 27.34375 -11.03125 29.601562 -11.820312 31.46875 -13.40625 C 33.332031 -14.988281 34.460938 -17.078125 34.859375 -19.671875 Z M 34.859375 -19.671875 "/></g></g></g><g fill="#faf6f6" fill-opacity="1"><g transform="translate(179.035089, 217.701478)"><g><path d="M 28.75 -43.59375 L 28.75 -31.125 C 27.625 -31.519531 26.351562 -31.71875 24.9375 -31.71875 C 22.613281 -31.71875 20.585938 -30.851562 18.859375 -29.125 C 17.140625 -27.40625 16.28125 -24.820312 16.28125 -21.375 L 16.28125 0 L 4.234375 0 L 4.234375 -42.828125 L 16.28125 -42.828125 L 16.28125 -39.859375 C 17.582031 -41.273438 19.082031 -42.28125 20.78125 -42.875 C 22.476562 -43.46875 24.144531 -43.765625 25.78125 -43.765625 C 26.289062 -43.765625 26.769531 -43.765625 27.21875 -43.765625 C 27.675781 -43.765625 28.1875 -43.707031 28.75 -43.59375 Z M 28.75 -43.59375 "/></g></g></g><g fill="#faf6f6" fill-opacity="1"><g transform="translate(208.888627, 217.701478)"><g><path d="M 34.9375 -15.34375 L 44.53125 -7.96875 C 42.71875 -5.257812 40.085938 -3.097656 36.640625 -1.484375 C 33.191406 0.128906 29.546875 0.9375 25.703125 0.9375 C 22.472656 0.9375 19.457031 0.359375 16.65625 -0.796875 C 13.863281 -1.960938 11.390625 -3.578125 9.234375 -5.640625 C 7.085938 -7.703125 5.421875 -10.078125 4.234375 -12.765625 C 3.046875 -15.453125 2.453125 -18.320312 2.453125 -21.375 C 2.453125 -25.5 3.457031 -29.253906 5.46875 -32.640625 C 7.476562 -36.035156 10.164062 -38.738281 13.53125 -40.75 C 16.894531 -42.757812 20.613281 -43.765625 24.6875 -43.765625 C 28.25 -43.765625 31.46875 -43.054688 34.34375 -41.640625 C 37.226562 -40.222656 39.6875 -38.367188 41.71875 -36.078125 C 43.757812 -33.796875 45.203125 -31.328125 46.046875 -28.671875 L 22.140625 -11.53125 C 22.703125 -11.300781 23.28125 -11.160156 23.875 -11.109375 C 24.46875 -11.054688 25.078125 -11.03125 25.703125 -11.03125 C 27.503906 -11.03125 29.253906 -11.367188 30.953125 -12.046875 C 32.648438 -12.722656 33.976562 -13.820312 34.9375 -15.34375 Z M 12.46875 -58.78125 L 20.4375 -64.453125 L 30.453125 -48.6875 L 19.171875 -48.6875 Z M 14.671875 -21.375 C 14.671875 -20.976562 14.679688 -20.625 14.703125 -20.3125 C 14.734375 -20 14.78125 -19.703125 14.84375 -19.421875 L 29.9375 -30.1875 C 29.207031 -30.644531 28.398438 -31.015625 27.515625 -31.296875 C 26.640625 -31.578125 25.695312 -31.71875 24.6875 -31.71875 C 21.914062 -31.71875 19.550781 -30.742188 17.59375 -28.796875 C 15.644531 -26.847656 14.671875 -24.375 14.671875 -21.375 Z M 14.671875 -21.375 "/></g></g></g><g fill="#faf6f6" fill-opacity="1"><g transform="translate(257.400629, 217.701478)"><g><path d="M 33.921875 -63.1875 L 45.96875 -63.1875 L 45.96875 0 L 33.921875 0 L 33.921875 -3.046875 C 33.015625 -1.804688 31.546875 -0.832031 29.515625 -0.125 C 27.484375 0.582031 25.476562 0.9375 23.5 0.9375 C 19.59375 0.9375 16.054688 -0.078125 12.890625 -2.109375 C 9.722656 -4.148438 7.191406 -6.851562 5.296875 -10.21875 C 3.398438 -13.582031 2.453125 -17.300781 2.453125 -21.375 C 2.453125 -25.5 3.414062 -29.253906 5.34375 -32.640625 C 7.269531 -36.035156 9.828125 -38.738281 13.015625 -40.75 C 16.210938 -42.757812 19.707031 -43.765625 23.5 -43.765625 C 25.414062 -43.765625 27.40625 -43.367188 29.46875 -42.578125 C 31.53125 -41.785156 33.015625 -40.878906 33.921875 -39.859375 Z M 24.6875 -11.03125 C 27.507812 -11.03125 29.835938 -11.988281 31.671875 -13.90625 C 33.515625 -15.832031 34.4375 -18.320312 34.4375 -21.375 C 34.4375 -24.375 33.515625 -26.847656 31.671875 -28.796875 C 29.835938 -30.742188 27.507812 -31.71875 24.6875 -31.71875 C 21.914062 -31.71875 19.550781 -30.742188 17.59375 -28.796875 C 15.644531 -26.847656 14.671875 -24.375 14.671875 -21.375 C 14.671875 -18.320312 15.644531 -15.832031 17.59375 -13.90625 C 19.550781 -11.988281 21.914062 -11.03125 24.6875 -11.03125 Z M 24.6875 -11.03125 "/></g></g></g><g fill="#faf6f6" fill-opacity="1"><g transform="translate(307.608862, 217.701478)"><g><path d="M 34.9375 -15.34375 L 44.53125 -7.96875 C 42.71875 -5.257812 40.085938 -3.097656 36.640625 -1.484375 C 33.191406 0.128906 29.546875 0.9375 25.703125 0.9375 C 22.472656 0.9375 19.457031 0.359375 16.65625 -0.796875 C 13.863281 -1.960938 11.390625 -3.578125 9.234375 -5.640625 C 7.085938 -7.703125 5.421875 -10.078125 4.234375 -12.765625 C 3.046875 -15.453125 2.453125 -18.320312 2.453125 -21.375 C 2.453125 -25.5 3.457031 -29.253906 5.46875 -32.640625 C 7.476562 -36.035156 10.164062 -38.738281 13.53125 -40.75 C 16.894531 -42.757812 20.613281 -43.765625 24.6875 -43.765625 C 28.25 -43.765625 31.46875 -43.054688 34.34375 -41.640625 C 37.226562 -40.222656 39.6875 -38.367188 41.71875 -36.078125 C 43.757812 -33.796875 45.203125 -31.328125 46.046875 -28.671875 L 22.140625 -11.53125 C 22.703125 -11.300781 23.28125 -11.160156 23.875 -11.109375 C 24.46875 -11.054688 25.078125 -11.03125 25.703125 -11.03125 C 27.503906 -11.03125 29.253906 -11.367188 30.953125 -12.046875 C 32.648438 -12.722656 33.976562 -13.820312 34.9375 -15.34375 Z M 14.671875 -21.375 C 14.671875 -20.238281 14.785156 -19.304688 15.015625 -18.578125 L 30.625 -29.6875 C 29.769531 -30.3125 28.847656 -30.804688 27.859375 -31.171875 C 26.867188 -31.535156 25.8125 -31.71875 24.6875 -31.71875 C 21.914062 -31.71875 19.550781 -30.742188 17.59375 -28.796875 C 15.644531 -26.847656 14.671875 -24.375 14.671875 -21.375 Z M 14.671875 -21.375 "/></g></g></g></svg>